<?xml version="1.0" standalone="no"?>
<svg viewBox="0 0 200 200" xmlns="http://www.w3.org/2000/svg">
  <path fill="#FFC7A3" d="M27.5,-47.2C37.6,-41.7,49.1,-38.4,57.2,-30.9C65.3,-23.4,69.8,-11.7,72,1.3C74.3,14.2,74.1,28.5,68.7,40.5C63.2,52.6,52.5,62.4,40.1,69.3C27.8,76.3,13.9,80.3,2.9,75.3C-8.1,70.3,-16.2,56.2,-28.4,49.2C-40.6,42.2,-57,42.3,-67.9,35.2C-78.8,28.2,-84.2,14.1,-84,0.1C-83.9,-13.9,-78.1,-27.9,-67.7,-35.7C-57.3,-43.6,-42.3,-45.4,-30.2,-49.7C-18.1,-54,-9.1,-60.9,-0.2,-60.6C8.7,-60.2,17.3,-52.6,27.5,-47.2Z" transform="translate(100 100)" />
</svg>
